<svg width="35" height="19" viewBox="0 0 35 19" fill="none" xmlns="http://www.w3.org/2000/svg">
<path d="M16.476 15.6156C16.7918 15.9328 17.3047 15.9328 17.6205 15.6156L29.0723 4.10124C29.3286 3.77291 29.7135 3.38325 29.7136 3.38318C29.7136 3.38317 29.7136 3.38317 29.7136 3.38317C30.0986 2.99348 29.9547 2.69454 29.6422 2.38137C29.3296 2.0682 28.8094 2.0682 28.4968 2.38137L16.4761 14.4684C16.1594 14.7848 16.1594 15.2992 16.476 15.6156C16.7918 15.9328 16.1594 15.2992 16.476 15.6156Z" fill="white"/>
<path d="M17.5241 15.6157C17.2083 15.9329 16.6954 15.9329 16.3796 15.6157L4.92787 4.10137C4.67154 3.77303 4.28659 3.38338 4.28651 3.3833C4.28651 3.3833 4.28651 3.3833 4.28651 3.3833C3.90151 2.9936 4.04538 2.69466 4.35797 2.3815C4.67056 2.06833 5.19069 2.06833 5.50329 2.3815L17.5241 14.4686C17.8407 14.785 17.8407 15.2993 17.5241 15.6157C17.2083 15.9329 17.8407 15.2993 17.5241 15.6157Z" fill="white"/>
</svg>
