<svg width="18" height="18" viewBox="0 0 18 18" fill="none" xmlns="http://www.w3.org/2000/svg">
<path d="M17.6916 0.312426C17.2815 -0.104142 16.6153 -0.104142 16.2052 0.312426L1.33288 15.433C0.999955 15.8642 0.499957 16.376 0.499957 16.376C-4.57466e-05 16.8877 0.186795 17.2803 0.59276 17.6916C0.998725 18.1028 1.67422 18.1028 2.08018 17.6916L17.6915 1.81885C18.1027 1.40335 18.1027 0.727931 17.6916 0.312426C17.2815 -0.104142 18.1027 0.727931 17.6916 0.312426Z" fill="black"/>
<path d="M17.4928 17.6876C17.0827 18.1041 16.4166 18.1041 16.0065 17.6876L1.13415 2.56698C0.801225 2.13576 0.301227 1.62401 0.301227 1.62401C-0.198776 1.11226 -0.0119358 0.719698 0.394029 0.308443C0.799995 -0.102812 1.47549 -0.102812 1.88145 0.308443L17.4928 16.1811C17.904 16.5967 17.904 17.2721 17.4928 17.6876C17.0827 18.1041 17.904 17.2721 17.4928 17.6876Z" fill="black"/>
</svg>
